<?xml version="1.0" standalone="no"?>
<!DOCTYPE svg PUBLIC "-//W3C//DTD SVG 20010904//EN"
 "http://www.w3.org/TR/2001/REC-SVG-20010904/DTD/svg10.dtd">
<svg version="1.0" xmlns="http://www.w3.org/2000/svg"
 width="600.000000pt" height="300.000000pt" viewBox="0 0 600.000000 300.000000"
 preserveAspectRatio="xMidYMid meet">

<g transform="translate(0.000000,300.000000) scale(0.100000,-0.100000)"
fill="#000000" stroke="none">
<path d="M220 1870 c0 -127 2 -150 15 -150 13 0 15 21 15 130 l0 130 98 0
c103 0 122 -7 122 -45 0 -36 -20 -45 -104 -45 -78 0 -79 0 -61 -20 15 -16 31
-20 82 -20 35 0 73 5 84 11 27 14 42 57 34 97 -9 48 -49 62 -180 62 l-105 0 0
-150z"/>
<path d="M560 1870 c0 -127 2 -150 15 -150 13 0 15 23 15 150 0 127 -2 150
-15 150 -13 0 -15 -23 -15 -150z"/>
<path d="M990 2000 c0 -18 7 -20 60 -20 l60 0 0 -130 c0 -123 1 -130 20 -130
19 0 20 7 20 130 l0 130 65 0 c58 0 65 2 65 20 0 19 -7 20 -145 20 -138 0
-145 -1 -145 -20z"/>
<path d="M1330 2000 c0 -18 7 -20 60 -20 l60 0 0 -130 c0 -123 1 -130 20 -130
19 0 20 7 20 130 l0 130 65 0 c58 0 65 2 65 20 0 19 -7 20 -145 20 -138 0
-145 -1 -145 -20z"/>
<path d="M2010 1870 c0 -143 1 -150 20 -150 18 0 20 7 20 65 l0 65 125 0 c118
0 125 1 125 20 0 19 -7 20 -125 20 l-125 0 0 45 0 45 125 0 c118 0 125 1 125
20 0 19 -7 20 -145 20 l-145 0 0 -150z"/>
<path d="M2456 2010 c-56 -17 -106 -83 -106 -140 0 -84 88 -160 167 -145 76
14 123 70 123 147 0 95 -94 165 -184 138z m93 -45 c16 -8 36 -31 46 -51 35
-73 -20 -154 -103 -154 -51 0 -102 54 -102 108 0 85 84 136 159 97z"/>
<path d="M2690 1870 c0 -143 1 -150 20 -150 19 0 20 7 20 130 l0 130 98 0
c103 0 122 -7 122 -45 0 -37 -19 -45 -109 -45 l-86 0 125 -125 c104 -104 130
-125 155 -125 28 0 25 5 -75 105 l-105 105 35 0 c74 0 108 44 89 115 -13 44
-48 55 -186 55 l-103 0 0 -150z"/>
<path d="M3380 1870 l0 -150 145 0 c138 0 145 1 145 20 0 19 -7 20 -130 20
l-130 0 0 45 0 45 130 0 c123 0 130 1 130 20 0 19 -7 20 -130 20 l-130 0 0 45
0 45 130 0 c123 0 130 1 130 20 0 19 -7 20 -145 20 l-145 0 0 -150z"/>
<path d="M3830 1870 l0 -152 95 4 c102 4 127 15 169 72 29 38 29 114 0 152
-41 56 -66 66 -168 72 l-96 5 0 -153z m221 72 c43 -47 41 -102 -5 -148 -33
-33 -37 -34 -110 -34 l-76 0 0 111 0 111 81 -4 c77 -3 82 -5 110 -36z"/>
<path d="M4170 1870 c0 -127 2 -150 15 -150 13 0 15 23 15 150 0 127 -2 150
-15 150 -13 0 -15 -23 -15 -150z"/>
<path d="M4362 2010 c-75 -17 -123 -102 -102 -179 28 -106 167 -143 242 -64
25 27 29 37 42 96 l6 27 -85 0 c-78 0 -85 -2 -85 -20 0 -18 7 -20 65 -20 41 0
65 -4 65 -11 0 -6 -15 -26 -34 -45 -38 -38 -77 -44 -126 -19 -32 17 -60 61
-60 95 0 53 57 110 111 110 12 0 36 -9 54 -20 28 -17 34 -18 45 -5 10 12 6 18
-22 35 -18 11 -38 20 -45 20 -6 0 -17 2 -25 4 -7 2 -28 0 -46 -4z"/>
<path d="M4600 1870 c0 -127 2 -150 15 -150 13 0 15 23 15 150 0 127 -2 150
-15 150 -13 0 -15 -23 -15 -150z"/>
<path d="M4680 2000 c0 -18 7 -20 65 -20 l65 0 0 -130 c0 -123 1 -130 20 -130
19 0 20 7 20 130 l0 130 60 0 c53 0 60 2 60 20 0 19 -7 20 -145 20 -138 0
-145 -1 -145 -20z"/>
<path d="M5360 1870 l0 -150 150 0 c143 0 150 1 150 20 0 19 -7 20 -130 20
l-130 0 0 130 c0 123 -1 130 -20 130 -19 0 -20 -7 -20 -150z"/>
<path d="M5710 1870 c0 -127 2 -150 15 -150 13 0 15 23 15 150 0 127 -2 150
-15 150 -13 0 -15 -23 -15 -150z"/>
<path d="M790 1865 c-123 -123 -141 -145 -120 -145 19 0 51 25 120 95 52 52
98 95 102 95 5 0 8 -43 8 -95 0 -88 1 -95 20 -95 19 0 20 7 20 145 0 80 -1
145 -3 145 -1 0 -67 -65 -147 -145z"/>
<path d="M1810 1865 c-135 -135 -143 -145 -115 -145 24 0 48 18 127 97 l98 98
0 -98 c0 -90 1 -97 20 -97 19 0 20 7 20 145 0 80 -1 145 -3 145 -1 0 -67 -65
-147 -145z"/>
<path d="M3030 1867 c0 -140 1 -147 20 -147 19 0 20 7 20 97 l0 97 53 -52 53
-52 49 50 c27 27 53 50 57 50 4 0 8 -43 8 -95 0 -88 1 -95 20 -95 19 0 20 7
20 147 l0 147 -75 -74 -75 -74 -75 74 -75 74 0 -147z"/>
<path d="M5165 1860 c-119 -119 -136 -140 -115 -140 19 0 51 25 120 95 52 52
98 95 102 95 5 0 8 -43 8 -95 0 -78 3 -95 15 -95 13 0 15 22 15 140 0 77 -1
140 -3 140 -1 0 -65 -63 -142 -140z"/>
</g>
</svg>
